<svg width="525" height="271" viewBox="0 0 525 271" fill="none" xmlns="http://www.w3.org/2000/svg">
<g clip-path="url(#clip0_1_255)">
<rect x="0.902344" width="524.098" height="271" rx="20" fill="#F5F3F8"/>
<rect x="71.4023" y="27.5" width="173" height="61.7868" rx="15.5" stroke="#6C975E"/>
<path d="M105.562 58.4453C105.562 56.7813 105.922 55.3013 106.642 54.0053C107.362 52.6933 108.362 51.6773 109.642 50.9573C110.938 50.2213 112.402 49.8533 114.034 49.8533C116.034 49.8533 117.746 50.3813 119.17 51.4373C120.594 52.4933 121.546 53.9333 122.026 55.7573H117.514C117.178 55.0533 116.698 54.5173 116.074 54.1493C115.466 53.7813 114.77 53.5973 113.986 53.5973C112.722 53.5973 111.698 54.0373 110.914 54.9173C110.13 55.7973 109.738 56.9733 109.738 58.4453C109.738 59.9173 110.13 61.0933 110.914 61.9733C111.698 62.8533 112.722 63.2933 113.986 63.2933C114.77 63.2933 115.466 63.1093 116.074 62.7413C116.698 62.3733 117.178 61.8373 117.514 61.1333H122.026C121.546 62.9573 120.594 64.3973 119.17 65.4533C117.746 66.4933 116.034 67.0133 114.034 67.0133C112.402 67.0133 110.938 66.6533 109.642 65.9333C108.362 65.1973 107.362 64.1813 106.642 62.8853C105.922 61.5893 105.562 60.1093 105.562 58.4453ZM128.643 55.7333C129.123 54.9973 129.723 54.4213 130.443 54.0053C131.163 53.5733 131.963 53.3573 132.843 53.3573V57.7013H131.715C130.691 57.7013 129.923 57.9253 129.411 58.3733C128.899 58.8053 128.643 59.5733 128.643 60.6773V66.8933H124.539V53.5013H128.643V55.7333ZM147.428 59.9813C147.428 60.3653 147.404 60.7653 147.356 61.1813H138.068C138.132 62.0133 138.396 62.6533 138.86 63.1013C139.34 63.5333 139.924 63.7493 140.612 63.7493C141.636 63.7493 142.348 63.3173 142.748 62.4533H147.116C146.892 63.3333 146.484 64.1253 145.892 64.8293C145.316 65.5333 144.588 66.0853 143.708 66.4853C142.828 66.8853 141.844 67.0853 140.756 67.0853C139.444 67.0853 138.276 66.8053 137.252 66.2453C136.228 65.6853 135.428 64.8853 134.852 63.8453C134.276 62.8053 133.988 61.5893 133.988 60.1973C133.988 58.8053 134.268 57.5893 134.828 56.5493C135.404 55.5093 136.204 54.7093 137.228 54.1493C138.252 53.5893 139.428 53.3093 140.756 53.3093C142.052 53.3093 143.204 53.5813 144.212 54.1253C145.22 54.6693 146.004 55.4453 146.564 56.4533C147.14 57.4613 147.428 58.6373 147.428 59.9813ZM143.228 58.9013C143.228 58.1973 142.988 57.6373 142.508 57.2213C142.028 56.8053 141.428 56.5973 140.708 56.5973C140.02 56.5973 139.436 56.7973 138.956 57.1973C138.492 57.5973 138.204 58.1653 138.092 58.9013H143.228ZM148.777 60.1733C148.777 58.7973 149.033 57.5893 149.545 56.5493C150.073 55.5093 150.785 54.7093 151.681 54.1493C152.577 53.5893 153.577 53.3093 154.681 53.3093C155.625 53.3093 156.449 53.5013 157.153 53.8853C157.873 54.2693 158.425 54.7733 158.809 55.3973V53.5013H162.913V66.8933H158.809V64.9973C158.409 65.6213 157.849 66.1253 157.129 66.5093C156.425 66.8933 155.601 67.0853 154.657 67.0853C153.569 67.0853 152.577 66.8053 151.681 66.2453C150.785 65.6693 150.073 64.8613 149.545 63.8213C149.033 62.7653 148.777 61.5493 148.777 60.1733ZM158.809 60.1973C158.809 59.1733 158.521 58.3653 157.945 57.7733C157.385 57.1813 156.697 56.8853 155.881 56.8853C155.065 56.8853 154.369 57.1813 153.793 57.7733C153.233 58.3493 152.953 59.1493 152.953 60.1733C152.953 61.1973 153.233 62.0133 153.793 62.6213C154.369 63.2133 155.065 63.5093 155.881 63.5093C156.697 63.5093 157.385 63.2133 157.945 62.6213C158.521 62.0293 158.809 61.2213 158.809 60.1973ZM173.347 63.4133V66.8933H171.259C169.771 66.8933 168.611 66.5333 167.779 65.8133C166.947 65.0773 166.531 63.8853 166.531 62.2373V56.9093H164.899V53.5013H166.531V50.2373H170.635V53.5013H173.323V56.9093H170.635V62.2853C170.635 62.6853 170.731 62.9733 170.923 63.1493C171.115 63.3253 171.435 63.4133 171.883 63.4133H173.347ZM177.697 52.1093C176.977 52.1093 176.385 51.9013 175.921 51.4853C175.473 51.0533 175.249 50.5253 175.249 49.9013C175.249 49.2613 175.473 48.7333 175.921 48.3173C176.385 47.8853 176.977 47.6693 177.697 47.6693C178.401 47.6693 178.977 47.8853 179.425 48.3173C179.889 48.7333 180.121 49.2613 180.121 49.9013C180.121 50.5253 179.889 51.0533 179.425 51.4853C178.977 51.9013 178.401 52.1093 177.697 52.1093ZM179.737 53.5013V66.8933H175.633V53.5013H179.737ZM188.735 63.0533L191.639 53.5013H196.007L191.255 66.8933H186.191L181.439 53.5013H185.831L188.735 63.0533ZM210.358 59.9813C210.358 60.3653 210.334 60.7653 210.286 61.1813H200.998C201.062 62.0133 201.326 62.6533 201.79 63.1013C202.27 63.5333 202.854 63.7493 203.542 63.7493C204.566 63.7493 205.278 63.3173 205.678 62.4533H210.046C209.822 63.3333 209.414 64.1253 208.822 64.8293C208.246 65.5333 207.518 66.0853 206.638 66.4853C205.758 66.8853 204.774 67.0853 203.686 67.0853C202.374 67.0853 201.206 66.8053 200.182 66.2453C199.158 65.6853 198.358 64.8853 197.782 63.8453C197.206 62.8053 196.918 61.5893 196.918 60.1973C196.918 58.8053 197.198 57.5893 197.758 56.5493C198.334 55.5093 199.134 54.7093 200.158 54.1493C201.182 53.5893 202.358 53.3093 203.686 53.3093C204.982 53.3093 206.134 53.5813 207.142 54.1253C208.15 54.6693 208.934 55.4453 209.494 56.4533C210.07 57.4613 210.358 58.6373 210.358 59.9813ZM206.158 58.9013C206.158 58.1973 205.918 57.6373 205.438 57.2213C204.958 56.8053 204.358 56.5973 203.638 56.5973C202.95 56.5973 202.366 56.7973 201.886 57.1973C201.422 57.5973 201.134 58.1653 201.022 58.9013H206.158Z" fill="#6C975E"/>
<rect x="108.402" y="104.607" width="221" height="61.7868" rx="15.5" fill="#6C975E"/>
<rect x="108.402" y="104.607" width="221" height="61.7868" rx="15.5" stroke="#6C975E"/>
<path d="M160.167 141.024H153.879L152.871 144H148.575L154.671 127.152H159.423L165.519 144H161.175L160.167 141.024ZM159.111 137.856L157.023 131.688L154.959 137.856H159.111ZM180.599 130.608V144H176.495V142.176C176.079 142.768 175.511 143.248 174.791 143.616C174.087 143.968 173.303 144.144 172.439 144.144C171.415 144.144 170.511 143.92 169.727 143.472C168.943 143.008 168.335 142.344 167.903 141.48C167.471 140.616 167.255 139.6 167.255 138.432V130.608H171.335V137.88C171.335 138.776 171.567 139.472 172.031 139.968C172.495 140.464 173.119 140.712 173.903 140.712C174.703 140.712 175.335 140.464 175.799 139.968C176.263 139.472 176.495 138.776 176.495 137.88V130.608H180.599ZM191.011 140.52V144H188.923C187.435 144 186.275 143.64 185.443 142.92C184.611 142.184 184.195 140.992 184.195 139.344V134.016H182.563V130.608H184.195V127.344H188.299V130.608H190.987V134.016H188.299V139.392C188.299 139.792 188.395 140.08 188.587 140.256C188.779 140.432 189.099 140.52 189.547 140.52H191.011ZM199.393 144.192C198.081 144.192 196.897 143.912 195.841 143.352C194.801 142.792 193.977 141.992 193.369 140.952C192.777 139.912 192.481 138.696 192.481 137.304C192.481 135.928 192.785 134.72 193.393 133.68C194.001 132.624 194.833 131.816 195.889 131.256C196.945 130.696 198.129 130.416 199.441 130.416C200.753 130.416 201.937 130.696 202.993 131.256C204.049 131.816 204.881 132.624 205.489 133.68C206.097 134.72 206.401 135.928 206.401 137.304C206.401 138.68 206.089 139.896 205.465 140.952C204.857 141.992 204.017 142.792 202.945 143.352C201.889 143.912 200.705 144.192 199.393 144.192ZM199.393 140.64C200.177 140.64 200.841 140.352 201.385 139.776C201.945 139.2 202.225 138.376 202.225 137.304C202.225 136.232 201.953 135.408 201.409 134.832C200.881 134.256 200.225 133.968 199.441 133.968C198.641 133.968 197.977 134.256 197.449 134.832C196.921 135.392 196.657 136.216 196.657 137.304C196.657 138.376 196.913 139.2 197.425 139.776C197.953 140.352 198.609 140.64 199.393 140.64ZM225.666 130.464C227.33 130.464 228.65 130.968 229.626 131.976C230.618 132.984 231.114 134.384 231.114 136.176V144H227.034V136.728C227.034 135.864 226.802 135.2 226.338 134.736C225.89 134.256 225.266 134.016 224.466 134.016C223.666 134.016 223.034 134.256 222.57 134.736C222.122 135.2 221.898 135.864 221.898 136.728V144H217.818V136.728C217.818 135.864 217.586 135.2 217.122 134.736C216.674 134.256 216.05 134.016 215.25 134.016C214.45 134.016 213.818 134.256 213.354 134.736C212.906 135.2 212.682 135.864 212.682 136.728V144H208.578V130.608H212.682V132.288C213.098 131.728 213.642 131.288 214.314 130.968C214.986 130.632 215.746 130.464 216.594 130.464C217.602 130.464 218.498 130.68 219.282 131.112C220.082 131.544 220.706 132.16 221.154 132.96C221.618 132.224 222.25 131.624 223.05 131.16C223.85 130.696 224.722 130.464 225.666 130.464ZM233.168 137.28C233.168 135.904 233.424 134.696 233.936 133.656C234.464 132.616 235.176 131.816 236.072 131.256C236.968 130.696 237.968 130.416 239.072 130.416C240.016 130.416 240.84 130.608 241.544 130.992C242.264 131.376 242.816 131.88 243.2 132.504V130.608H247.304V144H243.2V142.104C242.8 142.728 242.24 143.232 241.52 143.616C240.816 144 239.992 144.192 239.048 144.192C237.96 144.192 236.968 143.912 236.072 143.352C235.176 142.776 234.464 141.968 233.936 140.928C233.424 139.872 233.168 138.656 233.168 137.28ZM243.2 137.304C243.2 136.28 242.912 135.472 242.336 134.88C241.776 134.288 241.088 133.992 240.272 133.992C239.456 133.992 238.76 134.288 238.184 134.88C237.624 135.456 237.344 136.256 237.344 137.28C237.344 138.304 237.624 139.12 238.184 139.728C238.76 140.32 239.456 140.616 240.272 140.616C241.088 140.616 241.776 140.32 242.336 139.728C242.912 139.136 243.2 138.328 243.2 137.304ZM257.737 140.52V144H255.649C254.161 144 253.001 143.64 252.169 142.92C251.337 142.184 250.921 140.992 250.921 139.344V134.016H249.289V130.608H250.921V127.344H255.025V130.608H257.713V134.016H255.025V139.392C255.025 139.792 255.121 140.08 255.313 140.256C255.505 140.432 255.825 140.52 256.273 140.52H257.737ZM272.647 137.088C272.647 137.472 272.623 137.872 272.575 138.288H263.287C263.351 139.12 263.615 139.76 264.079 140.208C264.559 140.64 265.143 140.856 265.831 140.856C266.855 140.856 267.567 140.424 267.967 139.56H272.335C272.111 140.44 271.703 141.232 271.111 141.936C270.535 142.64 269.807 143.192 268.927 143.592C268.047 143.992 267.063 144.192 265.975 144.192C264.663 144.192 263.495 143.912 262.471 143.352C261.447 142.792 260.647 141.992 260.071 140.952C259.495 139.912 259.207 138.696 259.207 137.304C259.207 135.912 259.487 134.696 260.047 133.656C260.623 132.616 261.423 131.816 262.447 131.256C263.471 130.696 264.647 130.416 265.975 130.416C267.271 130.416 268.423 130.688 269.431 131.232C270.439 131.776 271.223 132.552 271.783 133.56C272.359 134.568 272.647 135.744 272.647 137.088ZM268.447 136.008C268.447 135.304 268.207 134.744 267.727 134.328C267.247 133.912 266.647 133.704 265.927 133.704C265.239 133.704 264.655 133.904 264.175 134.304C263.711 134.704 263.423 135.272 263.311 136.008H268.447ZM273.996 137.28C273.996 135.904 274.252 134.696 274.764 133.656C275.292 132.616 276.004 131.816 276.9 131.256C277.796 130.696 278.796 130.416 279.9 130.416C280.78 130.416 281.58 130.6 282.3 130.968C283.036 131.336 283.612 131.832 284.028 132.456V126.24H288.132V144H284.028V142.08C283.644 142.72 283.092 143.232 282.372 143.616C281.668 144 280.844 144.192 279.9 144.192C278.796 144.192 277.796 143.912 276.9 143.352C276.004 142.776 275.292 141.968 274.764 140.928C274.252 139.872 273.996 138.656 273.996 137.28ZM284.028 137.304C284.028 136.28 283.74 135.472 283.164 134.88C282.604 134.288 281.916 133.992 281.1 133.992C280.284 133.992 279.588 134.288 279.012 134.88C278.452 135.456 278.172 136.256 278.172 137.28C278.172 138.304 278.452 139.12 279.012 139.728C279.588 140.32 280.284 140.616 281.1 140.616C281.916 140.616 282.604 140.32 283.164 139.728C283.74 139.136 284.028 138.328 284.028 137.304Z" fill="#F5F3F8"/>
<rect x="261.402" y="27.5" width="204" height="61.7868" rx="15.5" stroke="#6C975E"/>
<path d="M305.983 50.0453V66.8933H301.879V50.0453H305.983ZM317.117 53.3573C318.685 53.3573 319.933 53.8693 320.861 54.8933C321.805 55.9013 322.277 57.2933 322.277 59.0693V66.8933H318.197V59.6213C318.197 58.7253 317.965 58.0293 317.501 57.5333C317.037 57.0373 316.413 56.7893 315.629 56.7893C314.845 56.7893 314.221 57.0373 313.757 57.5333C313.293 58.0293 313.061 58.7253 313.061 59.6213V66.8933H308.957V53.5013H313.061V55.2773C313.477 54.6853 314.037 54.2213 314.741 53.8853C315.445 53.5333 316.237 53.3573 317.117 53.3573ZM332.593 63.4133V66.8933H330.505C329.017 66.8933 327.857 66.5333 327.025 65.8133C326.193 65.0773 325.777 63.8853 325.777 62.2373V56.9093H324.145V53.5013H325.777V50.2373H329.881V53.5013H332.569V56.9093H329.881V62.2853C329.881 62.6853 329.977 62.9733 330.169 63.1493C330.361 63.3253 330.681 63.4133 331.129 63.4133H332.593ZM347.503 59.9813C347.503 60.3653 347.479 60.7653 347.431 61.1813H338.143C338.207 62.0133 338.471 62.6533 338.935 63.1013C339.415 63.5333 339.999 63.7493 340.687 63.7493C341.711 63.7493 342.423 63.3173 342.823 62.4533H347.191C346.967 63.3333 346.559 64.1253 345.967 64.8293C345.391 65.5333 344.663 66.0853 343.783 66.4853C342.903 66.8853 341.919 67.0853 340.831 67.0853C339.519 67.0853 338.351 66.8053 337.327 66.2453C336.303 65.6853 335.503 64.8853 334.927 63.8453C334.351 62.8053 334.063 61.5893 334.063 60.1973C334.063 58.8053 334.343 57.5893 334.903 56.5493C335.479 55.5093 336.279 54.7093 337.303 54.1493C338.327 53.5893 339.503 53.3093 340.831 53.3093C342.127 53.3093 343.279 53.5813 344.287 54.1253C345.295 54.6693 346.079 55.4453 346.639 56.4533C347.215 57.4613 347.503 58.6373 347.503 59.9813ZM343.303 58.9013C343.303 58.1973 343.063 57.6373 342.583 57.2213C342.103 56.8053 341.503 56.5973 340.783 56.5973C340.095 56.5973 339.511 56.7973 339.031 57.1973C338.567 57.5973 338.279 58.1653 338.167 58.9013H343.303ZM353.772 49.1333V66.8933H349.668V49.1333H353.772ZM360.85 49.1333V66.8933H356.746V49.1333H360.85ZM365.888 52.1093C365.168 52.1093 364.576 51.9013 364.112 51.4853C363.664 51.0533 363.44 50.5253 363.44 49.9013C363.44 49.2613 363.664 48.7333 364.112 48.3173C364.576 47.8853 365.168 47.6693 365.888 47.6693C366.592 47.6693 367.168 47.8853 367.616 48.3173C368.08 48.7333 368.312 49.2613 368.312 49.9013C368.312 50.5253 368.08 51.0533 367.616 51.4853C367.168 51.9013 366.592 52.1093 365.888 52.1093ZM367.928 53.5013V66.8933H363.824V53.5013H367.928ZM375.99 53.3093C376.934 53.3093 377.758 53.5013 378.462 53.8853C379.182 54.2693 379.734 54.7733 380.118 55.3973V53.5013H384.222V66.8693C384.222 68.1013 383.974 69.2133 383.478 70.2053C382.998 71.2133 382.254 72.0133 381.246 72.6053C380.254 73.1973 379.014 73.4933 377.526 73.4933C375.542 73.4933 373.934 73.0213 372.702 72.0773C371.47 71.1493 370.766 69.8853 370.59 68.2853H374.646C374.774 68.7973 375.078 69.1973 375.558 69.4853C376.038 69.7893 376.63 69.9413 377.334 69.9413C378.182 69.9413 378.854 69.6933 379.35 69.1973C379.862 68.7173 380.118 67.9413 380.118 66.8693V64.9733C379.718 65.5973 379.166 66.1093 378.462 66.5093C377.758 66.8933 376.934 67.0853 375.99 67.0853C374.886 67.0853 373.886 66.8053 372.99 66.2453C372.094 65.6693 371.382 64.8613 370.854 63.8213C370.342 62.7653 370.086 61.5493 370.086 60.1733C370.086 58.7973 370.342 57.5893 370.854 56.5493C371.382 55.5093 372.094 54.7093 372.99 54.1493C373.886 53.5893 374.886 53.3093 375.99 53.3093ZM380.118 60.1973C380.118 59.1733 379.83 58.3653 379.254 57.7733C378.694 57.1813 378.006 56.8853 377.19 56.8853C376.374 56.8853 375.678 57.1813 375.102 57.7733C374.542 58.3493 374.262 59.1493 374.262 60.1733C374.262 61.1973 374.542 62.0133 375.102 62.6213C375.678 63.2133 376.374 63.5093 377.19 63.5093C378.006 63.5093 378.694 63.2133 379.254 62.6213C379.83 62.0293 380.118 61.2213 380.118 60.1973ZM399.815 59.9813C399.815 60.3653 399.791 60.7653 399.743 61.1813H390.455C390.519 62.0133 390.783 62.6533 391.247 63.1013C391.727 63.5333 392.311 63.7493 392.999 63.7493C394.023 63.7493 394.735 63.3173 395.135 62.4533H399.503C399.279 63.3333 398.871 64.1253 398.279 64.8293C397.703 65.5333 396.975 66.0853 396.095 66.4853C395.215 66.8853 394.231 67.0853 393.143 67.0853C391.831 67.0853 390.663 66.8053 389.639 66.2453C388.615 65.6853 387.815 64.8853 387.239 63.8453C386.663 62.8053 386.375 61.5893 386.375 60.1973C386.375 58.8053 386.655 57.5893 387.215 56.5493C387.791 55.5093 388.591 54.7093 389.615 54.1493C390.639 53.5893 391.815 53.3093 393.143 53.3093C394.439 53.3093 395.591 53.5813 396.599 54.1253C397.607 54.6693 398.391 55.4453 398.951 56.4533C399.527 57.4613 399.815 58.6373 399.815 59.9813ZM395.615 58.9013C395.615 58.1973 395.375 57.6373 394.895 57.2213C394.415 56.8053 393.815 56.5973 393.095 56.5973C392.407 56.5973 391.823 56.7973 391.343 57.1973C390.879 57.5973 390.591 58.1653 390.479 58.9013H395.615ZM410.14 53.3573C411.708 53.3573 412.956 53.8693 413.884 54.8933C414.828 55.9013 415.3 57.2933 415.3 59.0693V66.8933H411.22V59.6213C411.22 58.7253 410.988 58.0293 410.524 57.5333C410.06 57.0373 409.436 56.7893 408.652 56.7893C407.868 56.7893 407.244 57.0373 406.78 57.5333C406.316 58.0293 406.084 58.7253 406.084 59.6213V66.8933H401.98V53.5013H406.084V55.2773C406.5 54.6853 407.06 54.2213 407.764 53.8853C408.468 53.5333 409.26 53.3573 410.14 53.3573ZM425.616 63.4133V66.8933H423.528C422.04 66.8933 420.88 66.5333 420.048 65.8133C419.216 65.0773 418.8 63.8853 418.8 62.2373V56.9093H417.168V53.5013H418.8V50.2373H422.904V53.5013H425.592V56.9093H422.904V62.2853C422.904 62.6853 423 62.9733 423.192 63.1493C423.384 63.3253 423.704 63.4133 424.152 63.4133H425.616Z" fill="#6C975E"/>
<rect x="343.402" y="104.607" width="191" height="61.7868" rx="15.5" stroke="#6C975E"/>
<path d="M385.584 127.152V144H381.48V127.152H385.584ZM396.718 130.464C398.286 130.464 399.534 130.976 400.462 132C401.406 133.008 401.878 134.4 401.878 136.176V144H397.798V136.728C397.798 135.832 397.566 135.136 397.102 134.64C396.638 134.144 396.014 133.896 395.23 133.896C394.446 133.896 393.822 134.144 393.358 134.64C392.894 135.136 392.662 135.832 392.662 136.728V144H388.558V130.608H392.662V132.384C393.078 131.792 393.638 131.328 394.342 130.992C395.046 130.64 395.838 130.464 396.718 130.464ZM410.178 144.192C409.01 144.192 407.97 143.992 407.058 143.592C406.146 143.192 405.426 142.648 404.898 141.96C404.37 141.256 404.074 140.472 404.01 139.608H408.066C408.114 140.072 408.33 140.448 408.714 140.736C409.098 141.024 409.57 141.168 410.13 141.168C410.642 141.168 411.034 141.072 411.306 140.88C411.594 140.672 411.738 140.408 411.738 140.088C411.738 139.704 411.538 139.424 411.138 139.248C410.738 139.056 410.09 138.848 409.194 138.624C408.234 138.4 407.434 138.168 406.794 137.928C406.154 137.672 405.602 137.28 405.138 136.752C404.674 136.208 404.442 135.48 404.442 134.568C404.442 133.8 404.65 133.104 405.066 132.48C405.498 131.84 406.122 131.336 406.938 130.968C407.77 130.6 408.754 130.416 409.89 130.416C411.57 130.416 412.89 130.832 413.85 131.664C414.826 132.496 415.386 133.6 415.53 134.976H411.738C411.674 134.512 411.466 134.144 411.114 133.872C410.778 133.6 410.33 133.464 409.77 133.464C409.29 133.464 408.922 133.56 408.666 133.752C408.41 133.928 408.282 134.176 408.282 134.496C408.282 134.88 408.482 135.168 408.882 135.36C409.298 135.552 409.938 135.744 410.802 135.936C411.794 136.192 412.602 136.448 413.226 136.704C413.85 136.944 414.394 137.344 414.858 137.904C415.338 138.448 415.586 139.184 415.602 140.112C415.602 140.896 415.378 141.6 414.93 142.224C414.498 142.832 413.866 143.312 413.034 143.664C412.218 144.016 411.266 144.192 410.178 144.192ZM420.177 129.216C419.457 129.216 418.865 129.008 418.401 128.592C417.953 128.16 417.729 127.632 417.729 127.008C417.729 126.368 417.953 125.84 418.401 125.424C418.865 124.992 419.457 124.776 420.177 124.776C420.881 124.776 421.457 124.992 421.905 125.424C422.369 125.84 422.601 126.368 422.601 127.008C422.601 127.632 422.369 128.16 421.905 128.592C421.457 129.008 420.881 129.216 420.177 129.216ZM422.217 130.608V144H418.113V130.608H422.217ZM430.279 130.416C431.223 130.416 432.047 130.608 432.751 130.992C433.471 131.376 434.023 131.88 434.407 132.504V130.608H438.511V143.976C438.511 145.208 438.263 146.32 437.767 147.312C437.287 148.32 436.543 149.12 435.535 149.712C434.543 150.304 433.303 150.6 431.815 150.6C429.831 150.6 428.223 150.128 426.991 149.184C425.759 148.256 425.055 146.992 424.879 145.392H428.935C429.063 145.904 429.367 146.304 429.847 146.592C430.327 146.896 430.919 147.048 431.623 147.048C432.471 147.048 433.143 146.8 433.639 146.304C434.151 145.824 434.407 145.048 434.407 143.976V142.08C434.007 142.704 433.455 143.216 432.751 143.616C432.047 144 431.223 144.192 430.279 144.192C429.175 144.192 428.175 143.912 427.279 143.352C426.383 142.776 425.671 141.968 425.143 140.928C424.631 139.872 424.375 138.656 424.375 137.28C424.375 135.904 424.631 134.696 425.143 133.656C425.671 132.616 426.383 131.816 427.279 131.256C428.175 130.696 429.175 130.416 430.279 130.416ZM434.407 137.304C434.407 136.28 434.119 135.472 433.543 134.88C432.983 134.288 432.295 133.992 431.479 133.992C430.663 133.992 429.967 134.288 429.391 134.88C428.831 135.456 428.551 136.256 428.551 137.28C428.551 138.304 428.831 139.12 429.391 139.728C429.967 140.32 430.663 140.616 431.479 140.616C432.295 140.616 432.983 140.32 433.543 139.728C434.119 139.136 434.407 138.328 434.407 137.304ZM449.712 130.464C451.248 130.464 452.48 130.976 453.408 132C454.336 133.008 454.8 134.4 454.8 136.176V144H450.72V136.728C450.72 135.832 450.488 135.136 450.024 134.64C449.56 134.144 448.936 133.896 448.152 133.896C447.368 133.896 446.744 134.144 446.28 134.64C445.816 135.136 445.584 135.832 445.584 136.728V144H441.48V126.24H445.584V132.408C446 131.816 446.568 131.344 447.288 130.992C448.008 130.64 448.816 130.464 449.712 130.464ZM465.116 140.52V144H463.028C461.54 144 460.38 143.64 459.548 142.92C458.716 142.184 458.3 140.992 458.3 139.344V134.016H456.668V130.608H458.3V127.344H462.404V130.608H465.092V134.016H462.404V139.392C462.404 139.792 462.5 140.08 462.692 140.256C462.884 140.432 463.204 140.52 463.652 140.52H465.116ZM474.122 134.016H471.914V144H467.81V134.016H466.322V130.608H467.81V130.224C467.81 128.576 468.282 127.328 469.226 126.48C470.17 125.616 471.554 125.184 473.378 125.184C473.682 125.184 473.906 125.192 474.05 125.208V128.688C473.266 128.64 472.714 128.752 472.394 129.024C472.074 129.296 471.914 129.784 471.914 130.488V130.608H474.122V134.016ZM489.275 130.608V144H485.171V142.176C484.755 142.768 484.187 143.248 483.467 143.616C482.763 143.968 481.979 144.144 481.115 144.144C480.091 144.144 479.187 143.92 478.403 143.472C477.619 143.008 477.011 142.344 476.579 141.48C476.147 140.616 475.931 139.6 475.931 138.432V130.608H480.011V137.88C480.011 138.776 480.243 139.472 480.707 139.968C481.171 140.464 481.795 140.712 482.579 140.712C483.379 140.712 484.011 140.464 484.475 139.968C484.939 139.472 485.171 138.776 485.171 137.88V130.608H489.275ZM496.326 126.24V144H492.222V126.24H496.326Z" fill="#6C975E"/>
<rect x="-38.5977" y="104.607" width="133" height="61.7868" rx="15.5" stroke="#6C975E"/>
<path d="M-2.75194 144.168C-3.98394 144.168 -5.08794 143.968 -6.06394 143.568C-7.03994 143.168 -7.82394 142.576 -8.41594 141.792C-8.99194 141.008 -9.29594 140.064 -9.32794 138.96H-4.95994C-4.89594 139.584 -4.67994 140.064 -4.31194 140.4C-3.94394 140.72 -3.46394 140.88 -2.87194 140.88C-2.26394 140.88 -1.78394 140.744 -1.43194 140.472C-1.07994 140.184 -0.903937 139.792 -0.903937 139.296C-0.903937 138.88 -1.04794 138.536 -1.33594 138.264C-1.60794 137.992 -1.95194 137.768 -2.36794 137.592C-2.76794 137.416 -3.34394 137.216 -4.09594 136.992C-5.18394 136.656 -6.07194 136.32 -6.75994 135.984C-7.44794 135.648 -8.03994 135.152 -8.53594 134.496C-9.03194 133.84 -9.27994 132.984 -9.27994 131.928C-9.27994 130.36 -8.71194 129.136 -7.57594 128.256C-6.43994 127.36 -4.95994 126.912 -3.13594 126.912C-1.27994 126.912 0.216063 127.36 1.35206 128.256C2.48806 129.136 3.09606 130.368 3.17606 131.952H-1.26394C-1.29594 131.408 -1.49594 130.984 -1.86394 130.68C-2.23194 130.36 -2.70394 130.2 -3.27994 130.2C-3.77594 130.2 -4.17594 130.336 -4.47994 130.608C-4.78394 130.864 -4.93594 131.24 -4.93594 131.736C-4.93594 132.28 -4.67994 132.704 -4.16794 133.008C-3.65594 133.312 -2.85594 133.64 -1.76794 133.992C-0.679937 134.36 0.200063 134.712 0.872063 135.048C1.56006 135.384 2.15206 135.872 2.64806 136.512C3.14406 137.152 3.39206 137.976 3.39206 138.984C3.39206 139.944 3.14406 140.816 2.64806 141.6C2.16806 142.384 1.46406 143.008 0.536063 143.472C-0.391937 143.936 -1.48794 144.168 -2.75194 144.168ZM23.0057 130.464C24.6697 130.464 25.9897 130.968 26.9657 131.976C27.9577 132.984 28.4537 134.384 28.4537 136.176V144H24.3737V136.728C24.3737 135.864 24.1417 135.2 23.6777 134.736C23.2297 134.256 22.6057 134.016 21.8057 134.016C21.0057 134.016 20.3737 134.256 19.9097 134.736C19.4617 135.2 19.2377 135.864 19.2377 136.728V144H15.1577V136.728C15.1577 135.864 14.9257 135.2 14.4617 134.736C14.0137 134.256 13.3897 134.016 12.5897 134.016C11.7897 134.016 11.1577 134.256 10.6937 134.736C10.2457 135.2 10.0217 135.864 10.0217 136.728V144H5.91769V130.608H10.0217V132.288C10.4377 131.728 10.9817 131.288 11.6537 130.968C12.3257 130.632 13.0857 130.464 13.9337 130.464C14.9417 130.464 15.8377 130.68 16.6217 131.112C17.4217 131.544 18.0457 132.16 18.4937 132.96C18.9577 132.224 19.5897 131.624 20.3897 131.16C21.1897 130.696 22.0617 130.464 23.0057 130.464ZM30.5079 137.28C30.5079 135.904 30.7639 134.696 31.2759 133.656C31.8039 132.616 32.5159 131.816 33.4119 131.256C34.3079 130.696 35.3079 130.416 36.4119 130.416C37.3559 130.416 38.1799 130.608 38.8839 130.992C39.6039 131.376 40.1559 131.88 40.5399 132.504V130.608H44.6439V144H40.5399V142.104C40.1399 142.728 39.5799 143.232 38.8599 143.616C38.1559 144 37.3319 144.192 36.3879 144.192C35.2999 144.192 34.3079 143.912 33.4119 143.352C32.5159 142.776 31.8039 141.968 31.2759 140.928C30.7639 139.872 30.5079 138.656 30.5079 137.28ZM40.5399 137.304C40.5399 136.28 40.2519 135.472 39.6759 134.88C39.1159 134.288 38.4279 133.992 37.6119 133.992C36.7959 133.992 36.0999 134.288 35.5239 134.88C34.9639 135.456 34.6839 136.256 34.6839 137.28C34.6839 138.304 34.9639 139.12 35.5239 139.728C36.0999 140.32 36.7959 140.616 37.6119 140.616C38.4279 140.616 39.1159 140.32 39.6759 139.728C40.2519 139.136 40.5399 138.328 40.5399 137.304ZM51.717 132.84C52.197 132.104 52.797 131.528 53.517 131.112C54.237 130.68 55.037 130.464 55.917 130.464V134.808H54.789C53.765 134.808 52.997 135.032 52.485 135.48C51.973 135.912 51.717 136.68 51.717 137.784V144H47.613V130.608H51.717V132.84ZM65.3426 140.52V144H63.2546C61.7666 144 60.6066 143.64 59.7746 142.92C58.9426 142.184 58.5266 140.992 58.5266 139.344V134.016H56.8946V130.608H58.5266V127.344H62.6306V130.608H65.3186V134.016H62.6306V139.392C62.6306 139.792 62.7266 140.08 62.9186 140.256C63.1106 140.432 63.4306 140.52 63.8786 140.52H65.3426Z" fill="#6C975E"/>
<rect x="219.402" y="181.713" width="194" height="61.7868" rx="15.5" stroke="#6C975E"/>
<path d="M270.432 221.274C269.2 221.274 268.096 221.074 267.12 220.674C266.144 220.274 265.36 219.682 264.768 218.898C264.192 218.114 263.888 217.17 263.856 216.066H268.224C268.288 216.69 268.504 217.17 268.872 217.506C269.24 217.826 269.72 217.986 270.312 217.986C270.92 217.986 271.4 217.85 271.752 217.578C272.104 217.29 272.28 216.898 272.28 216.402C272.28 215.986 272.136 215.642 271.848 215.37C271.576 215.098 271.232 214.874 270.816 214.698C270.416 214.522 269.84 214.322 269.088 214.098C268 213.762 267.112 213.426 266.424 213.09C265.736 212.754 265.144 212.258 264.648 211.602C264.152 210.946 263.904 210.09 263.904 209.034C263.904 207.466 264.472 206.242 265.608 205.362C266.744 204.466 268.224 204.018 270.048 204.018C271.904 204.018 273.4 204.466 274.536 205.362C275.672 206.242 276.28 207.474 276.36 209.058H271.92C271.888 208.514 271.688 208.09 271.32 207.786C270.952 207.466 270.48 207.306 269.904 207.306C269.408 207.306 269.008 207.442 268.704 207.714C268.4 207.97 268.248 208.346 268.248 208.842C268.248 209.386 268.504 209.81 269.016 210.114C269.528 210.418 270.328 210.746 271.416 211.098C272.504 211.466 273.384 211.818 274.056 212.154C274.744 212.49 275.336 212.978 275.832 213.618C276.328 214.258 276.576 215.082 276.576 216.09C276.576 217.05 276.328 217.922 275.832 218.706C275.352 219.49 274.648 220.114 273.72 220.578C272.792 221.042 271.696 221.274 270.432 221.274ZM278.285 214.41C278.285 213.018 278.565 211.802 279.125 210.762C279.701 209.722 280.493 208.922 281.501 208.362C282.525 207.802 283.693 207.522 285.005 207.522C286.685 207.522 288.085 207.962 289.205 208.842C290.341 209.722 291.085 210.962 291.437 212.562H287.069C286.701 211.538 285.989 211.026 284.933 211.026C284.181 211.026 283.581 211.322 283.133 211.914C282.685 212.49 282.461 213.322 282.461 214.41C282.461 215.498 282.685 216.338 283.133 216.93C283.581 217.506 284.181 217.794 284.933 217.794C285.989 217.794 286.701 217.282 287.069 216.258H291.437C291.085 217.826 290.341 219.058 289.205 219.954C288.069 220.85 286.669 221.298 285.005 221.298C283.693 221.298 282.525 221.018 281.501 220.458C280.493 219.898 279.701 219.098 279.125 218.058C278.565 217.018 278.285 215.802 278.285 214.41ZM292.817 214.386C292.817 213.01 293.073 211.802 293.585 210.762C294.113 209.722 294.825 208.922 295.721 208.362C296.617 207.802 297.617 207.522 298.721 207.522C299.665 207.522 300.489 207.714 301.193 208.098C301.913 208.482 302.465 208.986 302.849 209.61V207.714H306.953V221.106H302.849V219.21C302.449 219.834 301.889 220.338 301.169 220.722C300.465 221.106 299.641 221.298 298.697 221.298C297.609 221.298 296.617 221.018 295.721 220.458C294.825 219.882 294.113 219.074 293.585 218.034C293.073 216.978 292.817 215.762 292.817 214.386ZM302.849 214.41C302.849 213.386 302.561 212.578 301.985 211.986C301.425 211.394 300.737 211.098 299.921 211.098C299.105 211.098 298.409 211.394 297.833 211.986C297.273 212.562 296.993 213.362 296.993 214.386C296.993 215.41 297.273 216.226 297.833 216.834C298.409 217.426 299.105 217.722 299.921 217.722C300.737 217.722 301.425 217.426 301.985 216.834C302.561 216.242 302.849 215.434 302.849 214.41ZM314.026 203.346V221.106H309.922V203.346H314.026ZM316.184 214.386C316.184 213.01 316.44 211.802 316.952 210.762C317.48 209.722 318.192 208.922 319.088 208.362C319.984 207.802 320.984 207.522 322.088 207.522C323.032 207.522 323.856 207.714 324.56 208.098C325.28 208.482 325.832 208.986 326.216 209.61V207.714H330.32V221.106H326.216V219.21C325.816 219.834 325.256 220.338 324.536 220.722C323.832 221.106 323.008 221.298 322.064 221.298C320.976 221.298 319.984 221.018 319.088 220.458C318.192 219.882 317.48 219.074 316.952 218.034C316.44 216.978 316.184 215.762 316.184 214.386ZM326.216 214.41C326.216 213.386 325.928 212.578 325.352 211.986C324.792 211.394 324.104 211.098 323.288 211.098C322.472 211.098 321.776 211.394 321.2 211.986C320.64 212.562 320.36 213.362 320.36 214.386C320.36 215.41 320.64 216.226 321.2 216.834C321.776 217.426 322.472 217.722 323.288 217.722C324.104 217.722 324.792 217.426 325.352 216.834C325.928 216.242 326.216 215.434 326.216 214.41ZM337.393 209.61C337.777 208.986 338.329 208.482 339.049 208.098C339.769 207.714 340.593 207.522 341.521 207.522C342.625 207.522 343.625 207.802 344.521 208.362C345.417 208.922 346.121 209.722 346.633 210.762C347.161 211.802 347.425 213.01 347.425 214.386C347.425 215.762 347.161 216.978 346.633 218.034C346.121 219.074 345.417 219.882 344.521 220.458C343.625 221.018 342.625 221.298 341.521 221.298C340.577 221.298 339.753 221.114 339.049 220.746C338.345 220.362 337.793 219.858 337.393 219.234V221.106H333.289V203.346H337.393V209.61ZM343.249 214.386C343.249 213.362 342.961 212.562 342.385 211.986C341.825 211.394 341.129 211.098 340.297 211.098C339.481 211.098 338.785 211.394 338.209 211.986C337.649 212.578 337.369 213.386 337.369 214.41C337.369 215.434 337.649 216.242 338.209 216.834C338.785 217.426 339.481 217.722 340.297 217.722C341.113 217.722 341.809 217.426 342.385 216.834C342.961 216.226 343.249 215.41 343.249 214.386ZM353.682 203.346V221.106H349.578V203.346H353.682ZM369.28 214.194C369.28 214.578 369.256 214.978 369.208 215.394H359.92C359.984 216.226 360.248 216.866 360.712 217.314C361.192 217.746 361.776 217.962 362.464 217.962C363.488 217.962 364.2 217.53 364.6 216.666H368.968C368.744 217.546 368.336 218.338 367.744 219.042C367.168 219.746 366.44 220.298 365.56 220.698C364.68 221.098 363.696 221.298 362.608 221.298C361.296 221.298 360.128 221.018 359.104 220.458C358.08 219.898 357.28 219.098 356.704 218.058C356.128 217.018 355.84 215.802 355.84 214.41C355.84 213.018 356.12 211.802 356.68 210.762C357.256 209.722 358.056 208.922 359.08 208.362C360.104 207.802 361.28 207.522 362.608 207.522C363.904 207.522 365.056 207.794 366.064 208.338C367.072 208.882 367.856 209.658 368.416 210.666C368.992 211.674 369.28 212.85 369.28 214.194ZM365.08 213.114C365.08 212.41 364.84 211.85 364.36 211.434C363.88 211.018 363.28 210.81 362.56 210.81C361.872 210.81 361.288 211.01 360.808 211.41C360.344 211.81 360.056 212.378 359.944 213.114H365.08Z" fill="#6C975E"/>
<rect x="28.4023" y="181.713" width="179" height="61.7868" rx="15.5" stroke="#6C975E"/>
<path d="M66.3889 207.546V210.954H71.8849V214.122H66.3889V217.818H72.6049V221.106H62.2849V204.258H72.6049V207.546H66.3889ZM81.9893 211.122H79.7812V221.106H75.6773V211.122H74.1893V207.714H75.6773V207.33C75.6773 205.682 76.1493 204.434 77.0933 203.586C78.0373 202.722 79.4213 202.29 81.2453 202.29C81.5493 202.29 81.7733 202.298 81.9173 202.314V205.794C81.1333 205.746 80.5813 205.858 80.2613 206.13C79.9413 206.402 79.7812 206.89 79.7812 207.594V207.714H81.9893V211.122ZM90.6377 211.122H88.4297V221.106H84.3257V211.122H82.8377V207.714H84.3257V207.33C84.3257 205.682 84.7977 204.434 85.7417 203.586C86.6857 202.722 88.0697 202.29 89.8937 202.29C90.1977 202.29 90.4217 202.298 90.5657 202.314V205.794C89.7817 205.746 89.2297 205.858 88.9097 206.13C88.5897 206.402 88.4297 206.89 88.4297 207.594V207.714H90.6377V211.122ZM98.6621 221.298C97.3501 221.298 96.1661 221.018 95.1101 220.458C94.0701 219.898 93.2461 219.098 92.6381 218.058C92.0461 217.018 91.7501 215.802 91.7501 214.41C91.7501 213.034 92.0541 211.826 92.6621 210.786C93.2701 209.73 94.1021 208.922 95.1581 208.362C96.2141 207.802 97.3981 207.522 98.7101 207.522C100.022 207.522 101.206 207.802 102.262 208.362C103.318 208.922 104.15 209.73 104.758 210.786C105.366 211.826 105.67 213.034 105.67 214.41C105.67 215.786 105.358 217.002 104.734 218.058C104.126 219.098 103.286 219.898 102.214 220.458C101.158 221.018 99.9741 221.298 98.6621 221.298ZM98.6621 217.746C99.4461 217.746 100.11 217.458 100.654 216.882C101.214 216.306 101.494 215.482 101.494 214.41C101.494 213.338 101.222 212.514 100.678 211.938C100.15 211.362 99.4941 211.074 98.7101 211.074C97.9101 211.074 97.2461 211.362 96.7181 211.938C96.1901 212.498 95.9261 213.322 95.9261 214.41C95.9261 215.482 96.1821 216.306 96.6941 216.882C97.2221 217.458 97.8781 217.746 98.6621 217.746ZM111.951 209.946C112.431 209.21 113.031 208.634 113.751 208.218C114.471 207.786 115.271 207.57 116.151 207.57V211.914H115.023C113.999 211.914 113.231 212.138 112.719 212.586C112.207 213.018 111.951 213.786 111.951 214.89V221.106H107.847V207.714H111.951V209.946ZM125.577 217.626V221.106H123.489C122.001 221.106 120.841 220.746 120.009 220.026C119.177 219.29 118.761 218.098 118.761 216.45V211.122H117.129V207.714H118.761V204.45H122.865V207.714H125.553V211.122H122.865V216.498C122.865 216.898 122.961 217.186 123.153 217.362C123.345 217.538 123.665 217.626 124.113 217.626H125.577ZM131.967 203.346V221.106H127.863V203.346H131.967ZM147.565 214.194C147.565 214.578 147.541 214.978 147.493 215.394H138.205C138.269 216.226 138.533 216.866 138.997 217.314C139.477 217.746 140.061 217.962 140.749 217.962C141.773 217.962 142.485 217.53 142.885 216.666H147.253C147.029 217.546 146.621 218.338 146.029 219.042C145.453 219.746 144.725 220.298 143.845 220.698C142.965 221.098 141.981 221.298 140.893 221.298C139.581 221.298 138.413 221.018 137.389 220.458C136.365 219.898 135.565 219.098 134.989 218.058C134.413 217.018 134.125 215.802 134.125 214.41C134.125 213.018 134.405 211.802 134.965 210.762C135.541 209.722 136.341 208.922 137.365 208.362C138.389 207.802 139.565 207.522 140.893 207.522C142.189 207.522 143.341 207.794 144.349 208.338C145.357 208.882 146.141 209.658 146.701 210.666C147.277 211.674 147.565 212.85 147.565 214.194ZM143.365 213.114C143.365 212.41 143.125 211.85 142.645 211.434C142.165 211.018 141.565 210.81 140.845 210.81C140.157 210.81 139.573 211.01 139.093 211.41C138.629 211.81 138.341 212.378 138.229 213.114H143.365ZM155.178 221.298C154.01 221.298 152.97 221.098 152.058 220.698C151.146 220.298 150.426 219.754 149.898 219.066C149.37 218.362 149.074 217.578 149.01 216.714H153.066C153.114 217.178 153.33 217.554 153.714 217.842C154.098 218.13 154.57 218.274 155.13 218.274C155.642 218.274 156.034 218.178 156.306 217.986C156.594 217.778 156.738 217.514 156.738 217.194C156.738 216.81 156.538 216.53 156.138 216.354C155.738 216.162 155.09 215.954 154.194 215.73C153.234 215.506 152.434 215.274 151.794 215.034C151.154 214.778 150.602 214.386 150.138 213.858C149.674 213.314 149.442 212.586 149.442 211.674C149.442 210.906 149.65 210.21 150.066 209.586C150.498 208.946 151.122 208.442 151.938 208.074C152.77 207.706 153.754 207.522 154.89 207.522C156.57 207.522 157.89 207.938 158.85 208.77C159.826 209.602 160.386 210.706 160.53 212.082H156.738C156.674 211.618 156.466 211.25 156.114 210.978C155.778 210.706 155.33 210.57 154.77 210.57C154.29 210.57 153.922 210.666 153.666 210.858C153.41 211.034 153.282 211.282 153.282 211.602C153.282 211.986 153.482 212.274 153.882 212.466C154.298 212.658 154.938 212.85 155.802 213.042C156.794 213.298 157.602 213.554 158.226 213.81C158.85 214.05 159.394 214.45 159.858 215.01C160.338 215.554 160.586 216.29 160.602 217.218C160.602 218.002 160.378 218.706 159.93 219.33C159.498 219.938 158.866 220.418 158.034 220.77C157.218 221.122 156.266 221.298 155.178 221.298ZM168.561 221.298C167.393 221.298 166.353 221.098 165.441 220.698C164.529 220.298 163.809 219.754 163.281 219.066C162.753 218.362 162.457 217.578 162.393 216.714H166.449C166.497 217.178 166.713 217.554 167.097 217.842C167.481 218.13 167.953 218.274 168.513 218.274C169.025 218.274 169.417 218.178 169.689 217.986C169.977 217.778 170.121 217.514 170.121 217.194C170.121 216.81 169.921 216.53 169.521 216.354C169.121 216.162 168.473 215.954 167.577 215.73C166.617 215.506 165.817 215.274 165.177 215.034C164.537 214.778 163.985 214.386 163.521 213.858C163.057 213.314 162.825 212.586 162.825 211.674C162.825 210.906 163.033 210.21 163.449 209.586C163.881 208.946 164.505 208.442 165.321 208.074C166.153 207.706 167.137 207.522 168.273 207.522C169.953 207.522 171.273 207.938 172.233 208.77C173.209 209.602 173.769 210.706 173.913 212.082H170.121C170.057 211.618 169.849 211.25 169.497 210.978C169.161 210.706 168.713 210.57 168.153 210.57C167.673 210.57 167.305 210.666 167.049 210.858C166.793 211.034 166.665 211.282 166.665 211.602C166.665 211.986 166.865 212.274 167.265 212.466C167.681 212.658 168.321 212.85 169.185 213.042C170.177 213.298 170.985 213.554 171.609 213.81C172.233 214.05 172.777 214.45 173.241 215.01C173.721 215.554 173.969 216.29 173.985 217.218C173.985 218.002 173.761 218.706 173.313 219.33C172.881 219.938 172.249 220.418 171.417 220.77C170.601 221.122 169.649 221.298 168.561 221.298Z" fill="#6C975E"/>
<rect opacity="0.91" x="0.902344" y="-1" width="529" height="272" fill="url(#paint0_radial_1_255)"/>
</g>
<defs>
<radialGradient id="paint0_radial_1_255" cx="0" cy="0" r="1" gradientUnits="userSpaceOnUse" gradientTransform="translate(265.402 135) rotate(89.7674) scale(136.001 264.501)">
<stop stop-color="#F5F3F8" stop-opacity="0"/>
<stop offset="1" stop-color="#F5F3F8"/>
</radialGradient>
<clipPath id="clip0_1_255">
<rect x="0.902344" width="524.098" height="271" rx="20" fill="white"/>
</clipPath>
</defs>
</svg>