<svg width="18" height="18" viewBox="0 0 18 18" fill="none" xmlns="http://www.w3.org/2000/svg">
<g clip-path="url(#clip0_419_92)">
<path d="M4.79961 8.99998L8.39961 12L13.1996 5.99998M8.99961 17.4C7.89651 17.4 6.8042 17.1827 5.78507 16.7606C4.76593 16.3384 3.83992 15.7197 3.05991 14.9397C2.2799 14.1597 1.66116 13.2337 1.23902 12.2145C0.816882 11.1954 0.599609 10.1031 0.599609 8.99998C0.599609 7.89687 0.816882 6.80457 1.23902 5.78543C1.66116 4.7663 2.2799 3.84029 3.05991 3.06028C3.83992 2.28027 4.76593 1.66153 5.78507 1.23939C6.8042 0.817248 7.89651 0.599976 8.99961 0.599976C11.2274 0.599976 13.364 1.48497 14.9393 3.06028C16.5146 4.63558 17.3996 6.77216 17.3996 8.99998C17.3996 11.2278 16.5146 13.3644 14.9393 14.9397C13.364 16.515 11.2274 17.4 8.99961 17.4Z" stroke="#282A3A" stroke-width="1.5"/>
</g>
<defs>
<clipPath id="clip0_419_92">
<rect width="18" height="18" fill="white"/>
</clipPath>
</defs>
</svg>
