<!-- src/assets/icons/tick-circle-solid.svg -->
<svg width="19" height="19" viewBox="0 0 19 19" fill="none" xmlns="http://www.w3.org/2000/svg">
  <path fill-rule="evenodd" clip-rule="evenodd" d="M0.832031 9.09375C0.832031 6.7068 1.78024 4.41762 3.46807 2.72979C5.1559 1.04196 7.44508 0.09375 9.83203 0.09375C12.219 0.09375 14.5082 1.04196 16.196 2.72979C17.8838 4.41762 18.832 6.7068 18.832 9.09375C18.832 11.4807 17.8838 13.7699 16.196 15.4577C14.5082 17.1455 12.219 18.0938 9.83203 18.0938C7.44508 18.0938 5.1559 17.1455 3.46807 15.4577C1.78024 13.7699 0.832031 11.4807 0.832031 9.09375ZM9.31843 12.9458L14.5 6.46815L13.564 5.71935L9.14563 11.2406L6.01603 8.63295L5.24803 9.55455L9.31843 12.9458Z" fill="#719B64"/>
</svg>
